<?xml version="1.0" standalone="no"?>
<!DOCTYPE svg PUBLIC "-//W3C//DTD SVG 1.1//EN" "http://www.w3.org/Graphics/SVG/1.1/DTD/svg11.dtd" >
<!--
2013-9-30: Created.
-->
<svg>
<metadata>
Created by iconfont
</metadata>
<defs>

<font id="iconfont" horiz-adv-x="1024" >
  <font-face
    font-family="iconfont"
    font-weight="500"
    font-stretch="normal"
    units-per-em="1024"
    ascent="896"
    descent="-128"
  />
    <missing-glyph />
    
    <glyph glyph-name="bottomArrow" unicode="&#58916;" d="M944.355556 583.1111109999999c11.377778 11.377778 11.377778 28.444444 0 39.822222-11.377778 11.377778-28.444444 11.377778-39.822223 0l-381.155555-415.288889c-11.377778-11.377778-22.755556-11.377778-34.133334 0L125.155556 622.933333c-11.377778 11.377778-28.444444 11.377778-39.822223 0-11.377778-11.377778-17.066667-28.444444-5.688889-39.822222l364.088889-415.288889c34.133333-39.822222 85.333333-39.822222 119.466667 0l381.155556 415.288889z m-381.155556-420.977778"  horiz-adv-x="1024" />

    
    <glyph glyph-name="doubleRightArrow" unicode="&#58917;" d="M500.622222 816.355556c-11.377778 11.377778-28.444444 11.377778-39.822222 0-11.377778-17.066667-11.377778-34.133333 0-45.511112l415.288889-381.155555c11.377778-11.377778 11.377778-22.755556 0-34.133333l-415.288889-364.088889c-11.377778-11.377778-11.377778-28.444444 0-39.822223 11.377778-11.377778 28.444444-11.377778 39.822222 0l415.288889 364.088889c39.822222 34.133333 39.822222 85.333333 0 119.466667L500.622222 816.355556z m420.977778-381.155556M125.155556 816.355556c-11.377778 11.377778-28.444444 11.377778-39.822223-5.688889-11.377778-11.377778-11.377778-28.444444 0-39.822223l415.288889-381.155555c11.377778-11.377778 11.377778-22.755556 0-34.133333l-415.288889-364.088889c-11.377778-11.377778-11.377778-28.444444 0-39.822223 11.377778-11.377778 28.444444-11.377778 39.822223 0l415.288888 364.088889c39.822222 34.133333 39.822222 85.333333 0 119.466667L125.155556 816.355556z m420.977777-381.155556"  horiz-adv-x="1024" />

    
    <glyph glyph-name="topArrow" unicode="&#58918;" d="M563.2 605.866667c-34.133333 34.133333-85.333333 34.133333-119.466667 0l-364.088889-415.288889c-11.377778-11.377778-11.377778-28.444444 0-39.822222 11.377778-11.377778 28.444444-11.377778 39.822223 0l364.088889 415.288888c11.377778 11.377778 22.755556 11.377778 34.133333 0l381.155555-415.288888c11.377778-11.377778 28.444444-11.377778 39.822223 0 11.377778 11.377778 11.377778 28.444444 0 39.822222L563.2 605.866667z m0 0"  horiz-adv-x="1024" />

    
    <glyph glyph-name="doubleLeftArrow" unicode="&#58921;" d="M102.4 435.2c-34.133333-34.133333-34.133333-85.333333 0-119.466667l415.288889-364.088889c11.377778-11.377778 28.444444-11.377778 39.822222 0 11.377778 11.377778 11.377778 28.444444 0 39.822223L142.222222 361.24444400000004c-11.377778 11.377778-11.377778 22.755556 0 34.133334l415.288889 381.155555c11.377778 11.377778 11.377778 28.444444 0 39.822223-11.377778 11.377778-28.444444 11.377778-39.822222 0L102.4 435.2z m0 0M477.866667 435.2c-34.133333-34.133333-34.133333-85.333333 0-119.466667l415.288889-364.088889c11.377778-11.377778 28.444444-11.377778 39.822222 0 11.377778 11.377778 11.377778 28.444444 0 39.822223L517.688889 361.24444400000004c-11.377778 11.377778-11.377778 22.755556 0 34.133334l415.288889 381.155555c11.377778 11.377778 11.377778 28.444444 0 39.822223-11.377778 11.377778-28.444444 11.377778-39.822222 0L477.866667 435.2z m0 0"  horiz-adv-x="1024" />

    
    <glyph glyph-name="download" unicode="&#58923;" d="M995.84-128H28.16C12.8-128 0-115.2 0-99.84s12.8 28.16 28.16 28.16h967.68c15.36 0 28.16-12.8 28.16-28.16s-12.8-28.16-28.16-28.16zM926.72 519.68c-10.24 10.24-30.72 10.24-40.96 0L537.6 174.08V867.84C537.6 883.2 527.36 896 512 896s-25.6-12.8-25.6-28.16v-693.76l-348.16 345.6c-10.24 10.24-30.72 10.24-40.96 0-10.24-10.24-10.24-28.16 0-40.96l394.24-394.24c2.56-2.56 2.56-2.56 5.12-2.56l2.56-2.56c7.68-2.56 15.36-2.56 23.04 0 2.56 0 2.56 2.56 2.56 2.56 2.56 0 5.12 2.56 5.12 2.56l394.24 394.24c12.8 12.8 12.8 30.72 2.56 40.96z"  horiz-adv-x="1024" />

    
    <glyph glyph-name="icon-test" unicode="&#58949;" d="M518.826667 290.133333l39.253333-40.96-25.6-27.306666s-18.773333-20.48 5.12-46.08l199.68-206.506667s18.773333-18.773333 40.96-3.413333l100.693333 100.693333s17.066667 23.893333-5.12 47.786667l-197.973333 204.8s-22.186667 22.186667-46.08 3.413333l-25.6-27.306667-40.96 42.666667-44.373333-47.786667m-27.306667 119.466667l-215.04 220.16v68.266667l-126.293333 78.506666-63.146667-63.146666 76.8-126.293334h66.56l211.626667-216.746666 49.493333 39.253333m-346.453333-370.346667s0 34.133333 34.133333 34.133334c0 0 30.72-1.706667 30.72-34.133334 0 0-1.706667-30.72-32.426667-32.426666l-29.013333-29.013334s40.96-39.253333 88.746667 0l384 426.666667s42.666667-29.013333 104.106666-29.013333c0 0 76.8-3.413333 136.533334 51.2 0 0 117.76 95.573333 58.026666 245.76l-136.533333-138.24-116.053333 119.466666 136.533333 136.533334s-87.04 52.906667-204.8-23.893334c0 0-61.44-44.373333-80.213333-124.586666 0 0-27.306667-95.573333 34.133333-180.906667l-431.786667-368.64s-27.306667-27.306667-13.653333-68.266667l37.546667 15.36m0 0s3.413333-32.426667 32.426666-32.426666l-29.013333-29.013334s-37.546667 32.426667-40.96 51.2l37.546667 10.24"  horiz-adv-x="1024" />

    
    <glyph glyph-name="icon-test4" unicode="&#58953;" d="M904.533333 47.786667l-58.026666-58.026667c-10.24-10.24-27.306667-10.24-37.546667 0l-114.346667 114.346667c-10.24 10.24-10.24 27.306667 0 37.546666l3.413334 3.413334-54.613334 54.613333c-1.706667 1.706667-1.706667 3.413333-3.413333 5.12-56.32-44.373333-126.293333-71.68-204.8-71.68-179.2 0-325.973333 145.066667-325.973333 325.973333 0 179.2 145.066667 325.973333 325.973333 325.973334 179.2 0 325.973333-145.066667 325.973333-325.973334 0-76.8-27.306667-148.48-71.68-204.8 1.706667-1.706667 3.413333-1.706667 5.12-3.413333l54.613334-54.613333 3.413333 3.413333c10.24 10.24 27.306667 10.24 37.546667 0l114.346666-114.346667c10.24-8.533333 10.24-25.6 0-37.546666z m-467.626666 610.986666c-110.933333 0-199.68-90.453333-199.68-199.68s90.453333-199.68 199.68-199.68c110.933333 0 199.68 90.453333 199.68 199.68s-88.746667 199.68-199.68 199.68z"  horiz-adv-x="1024" />

    
    <glyph glyph-name="icon-test12" unicode="&#58961;" d="M921.6 631.466667l-162.133333 162.133333c-22.186667 22.186667-58.026667 22.186667-81.92 0l-162.133334-162.133333c-22.186667-22.186667-22.186667-58.026667 0-81.92l162.133334-162.133334c22.186667-22.186667 58.026667-22.186667 81.92 0l162.133333 162.133334c22.186667 22.186667 22.186667 58.026667 0 81.92z m-203.093333-204.8l-162.133334 162.133333 162.133334 162.133333 162.133333-162.133333-162.133333-162.133333z m-344.746667 336.213333h-230.4c-32.426667 0-58.026667-25.6-58.026667-58.026667v-230.4c0-32.426667 25.6-58.026667 58.026667-58.026666h230.4c32.426667 0 58.026667 25.6 58.026667 58.026666v230.4c-1.706667 32.426667-27.306667 58.026667-58.026667 58.026667z m0-460.8h-230.4c-32.426667 0-58.026667-25.6-58.026667-58.026667v-230.4c0-32.426667 25.6-58.026667 58.026667-58.026666h230.4c32.426667 0 58.026667 25.6 58.026667 58.026666v230.4c-1.706667 32.426667-27.306667 58.026667-58.026667 58.026667z m459.093333 0h-230.4c-32.426667 0-58.026667-25.6-58.026666-58.026667v-230.4c0-32.426667 25.6-58.026667 58.026666-58.026666h230.4c32.426667 0 58.026667 25.6 58.026667 58.026666v230.4c0 32.426667-25.6 58.026667-58.026667 58.026667z"  horiz-adv-x="1024" />

    
    <glyph glyph-name="icon-test13" unicode="&#58962;" d="M155.306667-18.773333c-23.893333 0-42.666667 18.773333-42.666667 42.666666v10.24c0 23.893333 18.773333 42.666667 42.666667 42.666667h715.093333c23.893333 0 42.666667-18.773333 42.666667-42.666667v-10.24c0-23.893333-18.773333-42.666667-42.666667-42.666666h-715.093333zM155.306667 184.32c-23.893333 0-42.666667 18.773333-42.666667 42.666667v10.24c0 23.893333 18.773333 42.666667 42.666667 42.666666h356.693333c23.893333 0 42.666667-18.773333 42.666667-42.666666v-10.24c0-23.893333-18.773333-42.666667-42.666667-42.666667h-356.693333zM776.533333 158.72l131.413334-39.253333-39.253334 131.413333zM378.88 779.946667c-8.533333 8.533333-20.48 8.533333-29.013333 0l-102.4-102.4c-8.533333-8.533333-8.533333-20.48 0-29.013334l93.866666-93.866666 131.413334 131.413333-93.866667 93.866667zM846.506667 312.32l-344.746667 344.746667-131.413333-131.413334 344.746666-344.746666c8.533333-8.533333 20.48-8.533333 29.013334 0l102.4 102.4c8.533333 8.533333 8.533333 22.186667 0 29.013333z"  horiz-adv-x="1024" />

    
    <glyph glyph-name="icon-test19" unicode="&#58968;" d="M512 851.626667c-259.413333 0-467.626667-209.92-467.626667-467.626667 0-259.413333 209.92-467.626667 467.626667-467.626667 259.413333 0 467.626667 209.92 467.626667 467.626667 0 259.413333-208.213333 467.626667-467.626667 467.626667m291.84-353.28l-327.68-315.733334c-5.12-5.12-8.533333-8.533333-13.653333-10.24-20.48-15.36-49.493333-13.653333-68.266667 5.12l-139.946667 141.653334c-20.48 20.48-20.48 54.613333 0 75.093333 20.48 20.48 54.613333 20.48 75.093334 0l105.813333-105.813333 296.96 285.013333c20.48 20.48 54.613333 20.48 75.093333 0 17.066667-20.48 17.066667-54.613333-3.413333-75.093333"  horiz-adv-x="1024" />

    
    <glyph glyph-name="icon-test35" unicode="&#58984;" d="M535.893333 512h-500.053333v-256h500.053333v-187.733333l452.266667 315.733333-452.266667 315.733333z"  horiz-adv-x="1024" />

    
    <glyph glyph-name="jiahao" unicode="&#58987;" d="M976.4 356.4c15.3 0 27.6 12.4 27.6 27.6 0 15.3-12.4 27.6-27.6 27.6H47.6c-15.3 0-27.6-12.4-27.6-27.6 0-15.3 12.4-27.6 27.6-27.6h928.8zM484.4-80.4c0-15.3 12.4-27.6 27.6-27.6 15.3 0 27.6 12.4 27.6 27.6V848.4C539.6 863.7 527.2 876 512 876c-15.3 0-27.6-12.4-27.6-27.6v-928.8z"  horiz-adv-x="1024" />

    
    <glyph glyph-name="icon-success" unicode="&#58990;" d="M511.542 873.131c-269.875 0-488.651-218.776-488.651-488.65 0-269.876 218.776-488.65 488.651-488.65s488.65 218.773 488.65 488.65c-0.002 269.873-218.776 488.65-488.65 488.65zM402.951 113.12699999999995L185.83 330.244l54.177 54.177L402.95 221.47699999999998 783.07 601.6l54.176-54.175-434.296-434.298z"  horiz-adv-x="1024" />

    
    <glyph glyph-name="jianhao" unicode="&#58992;" d="M512 864C246.912 864 32 649.088 32 384c0-265.088 214.912-480 480-480s480 214.912 480 480c0 265.088-214.912 480-480 480z m256-512H256v64h512v-64z"  horiz-adv-x="1024" />

    
    <glyph glyph-name="jiahao-fill" unicode="&#58993;" d="M828.704 699.424C744.096 783.616 631.648 829.984 512 829.984s-232.129-46.368-316.737-130.56C110.624 615.2 64 503.168 64 384c0-119.2 46.624-231.2 131.232-315.424 84.608-84.192 197.089-130.56 316.737-130.56s232.129 46.368 316.704 130.56C913.345 152.83 959.97 264.864 959.936 384.03c0.031 119.168-46.56 231.169-131.232 315.393zM736.001 352H544v-192c0-17.696-14.336-32-32.001-32s-32 14.303-32 32V352H288c-17.664 0-32 14.336-32 32.001s14.336 32 32 32h192V608c0 17.664 14.337 32 32.002 32s32-14.336 32-32v-192h192c17.696 0 32.001-14.337 32.001-32.002S753.697 352 736.001 352z"  horiz-adv-x="1024" />

    
    <glyph glyph-name="_sousuo" unicode="&#58996;" d="M420.6 155.4c-84.7 0-164.3 33-224.2 92.8-59.9 59.9-92.8 139.5-92.8 224.2s33 164.3 92.8 224.2 139.5 92.8 224.2 92.8 164.3-33 224.2-92.8c59.9-59.9 92.8-139.5 92.8-224.2s-33-164.3-92.8-224.2c-59.9-59.9-139.5-92.8-224.2-92.8z m0 570c-67.6 0-131.1-26.3-178.9-74.1-47.8-47.8-74.1-111.3-74.1-178.9s26.3-131.1 74.1-178.9c47.8-47.8 111.3-74.1 178.9-74.1s131.1 26.3 178.9 74.1c47.8 47.8 74.1 111.3 74.1 178.9s-26.3 131.1-74.1 178.9c-47.8 47.7-111.3 74.1-178.9 74.1zM825.4 34.8c-8.2 0-16.4 3.1-22.6 9.4L599.4 247.5c-12.5 12.5-12.5 32.8 0 45.3s32.8 12.5 45.3 0L848 89.4c12.5-12.5 12.5-32.8 0-45.3-6.2-6.2-14.4-9.3-22.6-9.3z"  horiz-adv-x="1024" />

    
    <glyph glyph-name="shanchushuzimianbanbianjitai" unicode="&#59005;" d="M512 423.332L367.849 567.516a27.811 27.811 0 1 1-39.332-39.332L472.636 384 328.452 239.849a27.811 27.811 0 1 1 39.332-39.332L512 344.636l144.151-144.184a27.811 27.811 0 1 1 39.332 39.332L551.364 384l144.184 144.151a27.811 27.811 0 1 1-39.332 39.332L512 423.364z"  horiz-adv-x="1024" />

    
    <glyph glyph-name="guanbi-fill" unicode="&#59009;" d="M512 832C264.991 832 64 631.04 64 384s200.96-448 448-448c247.009 0 448 200.96 448 448S759.04 832 512 832z m182.752-585.984c12.48-12.544 12.448-32.768-0.063-45.248a31.937 31.937 0 0 0-22.592-9.344c-8.224 0-16.416 3.136-22.657 9.408l-137.6 138.016-138.048-136.577c-6.239-6.144-14.368-9.247-22.496-9.247a31.886 31.886 0 0 0-22.752 9.504c-12.416 12.576-12.32 32.8 0.257 45.248L466.688 384.16 329.311 521.984c-12.48 12.513-12.447 32.768 0.064 45.248 12.513 12.513 32.735 12.448 45.248-0.063l137.568-137.985L650.239 565.76c12.543 12.447 32.831 12.32 45.248-0.257 12.447-12.576 12.32-32.831-0.257-45.248L557.344 383.873l137.408-137.857z"  horiz-adv-x="1024" />

    
    <glyph glyph-name="yuanxingxuanzhong-fill" unicode="&#59010;" d="M512 830.017C266.08 830.017 65.983 629.92 65.983 384c0-245.952 200.065-446.017 446.017-446.017S958.017 138.048 958.017 384c0 245.92-200.065 446.017-446.017 446.017z m215.231-372.45L471.008 198.562c-0.064-0.064-0.193-0.096-0.257-0.193-0.096-0.063-0.096-0.192-0.192-0.256-2.05-1.984-4.576-3.2-6.945-4.545-1.183-0.672-2.143-1.696-3.392-2.176-3.84-1.536-7.904-2.336-11.967-2.336-4.096 0-8.225 0.8-12.097 2.4-1.28 0.543-2.303 1.632-3.52 2.303-2.368 1.344-4.831 2.529-6.88 4.545-0.064 0.063-0.097 0.192-0.16 0.256-0.064 0.096-0.193 0.096-0.256 0.193L299.325 328.255c-12.32 12.673-12.033 32.928 0.64 45.248 12.673 12.288 32.895 12.064 45.248-0.64l103.263-106.112 233.28 235.84c12.417 12.576 32.705 12.703 45.248 0.256 12.516-12.448 12.644-32.703 0.227-45.28z"  horiz-adv-x="1024" />

    
    <glyph glyph-name="xiala" unicode="&#59012;" d="M787.2 515.2c-9.6 9.6-22.4 12.8-35.2 12.8l-480-3.2c-12.8 0-25.6-3.2-35.2-12.8-19.2-19.2-19.2-48 0-67.2l240-240c3.2-3.2 9.6-6.4 12.8-9.6l3.2-3.2c16-6.4 38.4-3.2 51.2 9.6l240 243.2c22.4 22.4 19.2 51.2 3.2 70.4z"  horiz-adv-x="1024" />

    


  </font>
</defs>
</svg>
